<?xml version="1.0" encoding="utf-8"?>
<!DOCTYPE svg PUBLIC "-//W3C//DTD SVG 20010904//EN" "http://www.w3.org/TR/2001/REC-SVG-20010904/DTD/svg10.dtd">
<svg version="1.0" xmlns="http://www.w3.org/2000/svg" width="200px" height="200px" viewBox="0 0 200 200" preserveAspectRatio="xMidYMid meet">
 <g fill="#cf1717">
  <path d="M0 100 l0 -100 100 0 100 0 0 100 0 100 -100 0 -100 0 0 -100z"/>
 </g>
 <g fill="#ec4c4c">
  <path d="M0 100 l0 -100 100 0 100 0 0 100 0 100 -100 0 -100 0 0 -100z m44.8 -16 c-8 -8 -11.8 -9.3 -11.8 -4.1 0 2.2 0.9 3.7 3.3 5.5 4.2 3.2 9.5 5.5 12.8 5.6 2.5 0 2.1 -0.6 -4.3 -7z"/>
 </g>
 <g fill="#ffffff">
  <path d="M0 100 l0 -100 100 0 100 0 0 100 0 100 -100 0 -100 0 0 -100z m44.8 -16 c-8 -8 -11.8 -9.3 -11.8 -4.1 0 2.2 0.9 3.7 3.3 5.5 4.2 3.2 9.5 5.5 12.8 5.6 2.5 0 2.1 -0.6 -4.3 -7z m107.6 2 c7.6 -2.9 13.9 -8.8 17.8 -16.7 2.8 -5.7 3.2 -7.7 3.2 -14 0 -4 -0.4 -7.7 -0.9 -8.1 -0.6 -0.6 -10.6 5.3 -25.8 15.2 -13.6 8.9 -25.3 16.8 -25.9 17.4 -1 1 -0.7 1.6 1.1 3 7.5 5.5 20.6 6.8 30.5 3.2z"/>
  <path d="M42 87.5 c0 -0.3 0.2 -0.5 0.5 -0.5 0.3 0 0.5 0.2 0.5 0.5 0 0.3 -0.2 0.5 -0.5 0.5 -0.3 0 -0.5 -0.2 -0.5 -0.5z"/>
  <path d="M37.2 84.3 c-2.4 -2.4 -2.4 -2.5 -0.2 -0.8 4.2 3.3 4.4 3.5 3.7 3.5 -0.4 0 -1.9 -1.2 -3.5 -2.7z"/>
  <path d="M133.5 84 c-0.3 -0.5 -0.1 -1 0.4 -1 0.6 0 1.1 0.5 1.1 1 0 0.6 -0.2 1 -0.4 1 -0.3 0 -0.8 -0.4 -1.1 -1z"/>
  <path d="M151.5 82.9 c-0.4 -0.6 -0.5 -1.2 -0.2 -1.5 0.2 -0.3 0.7 0.2 1 1.1 0.7 1.7 0.1 2 -0.8 0.4z"/>
  <path d="M139.5 81.9 c-0.4 -0.6 -0.5 -1.2 -0.2 -1.5 0.2 -0.3 0.7 0.2 1 1.1 0.7 1.7 0.1 2 -0.8 0.4z"/>
  <path d="M145 82 c0 -0.7 0.3 -1 0.7 -0.7 0.3 0.4 0.3 1 0 1.4 -0.4 0.3 -0.7 0 -0.7 -0.7z"/>
  <path d="M126 80 c0 -0.7 0.3 -1 0.7 -0.7 0.3 0.4 0.3 1 0 1.4 -0.4 0.3 -0.7 0 -0.7 -0.7z"/>
  <path d="M130 79.5 c0 -0.3 0.2 -0.5 0.5 -0.5 0.3 0 0.5 0.2 0.5 0.5 0 0.3 -0.2 0.5 -0.5 0.5 -0.3 0 -0.5 -0.2 -0.5 -0.5z"/>
  <path d="M134.7 79.3 c-0.4 -0.3 -0.7 -1.1 -0.7 -1.7 0 -0.6 0.5 -0.5 1.2 0.2 0.6 0.6 0.9 1.4 0.7 1.7 -0.3 0.3 -0.9 0.2 -1.2 -0.2z"/>
  <path d="M146.7 77.3 c-0.4 -0.3 -0.7 -1.1 -0.7 -1.7 0 -0.6 0.5 -0.5 1.2 0.2 0.6 0.6 0.9 1.4 0.7 1.7 -0.3 0.3 -0.9 0.2 -1.2 -0.2z"/>
  <path d="M153.7 77.3 c-0.4 -0.3 -0.7 -1.1 -0.7 -1.7 0 -0.6 0.5 -0.5 1.2 0.2 0.6 0.6 0.9 1.4 0.7 1.7 -0.3 0.3 -0.9 0.2 -1.2 -0.2z"/>
  <path d="M140.4 74.8 c-0.4 -0.7 -0.3 -0.8 0.4 -0.4 1.2 0.7 1.6 1.6 0.8 1.6 -0.3 0 -0.8 -0.5 -1.2 -1.2z"/>
  <path d="M135 73.9 c0 -0.5 0.5 -0.7 1 -0.4 0.6 0.3 1 0.8 1 1.1 0 0.2 -0.4 0.4 -1 0.4 -0.5 0 -1 -0.5 -1 -1.1z"/>
  <path d="M150.4 72.8 c-0.4 -0.7 -0.3 -0.8 0.4 -0.4 1.2 0.7 1.6 1.6 0.8 1.6 -0.3 0 -0.8 -0.5 -1.2 -1.2z"/>
  <path d="M160.4 71.8 c-0.4 -0.7 -0.3 -0.8 0.4 -0.4 1.2 0.7 1.6 1.6 0.8 1.6 -0.3 0 -0.8 -0.5 -1.2 -1.2z"/>
  <path d="M143 69.9 c0 -0.5 0.5 -0.7 1 -0.4 0.6 0.3 1 0.8 1 1.1 0 0.2 -0.4 0.4 -1 0.4 -0.5 0 -1 -0.5 -1 -1.1z"/>
  <path d="M157 68 c0 -0.7 0.3 -1 0.7 -0.7 0.3 0.4 0.3 1 0 1.4 -0.4 0.3 -0.7 0 -0.7 -0.7z"/>
  <path d="M152.7 67.3 c-0.4 -0.3 -0.7 -1.1 -0.7 -1.7 0 -0.6 0.5 -0.5 1.2 0.2 0.6 0.6 0.9 1.4 0.7 1.7 -0.3 0.3 -0.9 0.2 -1.2 -0.2z"/>
  <path d="M165 67 c0 -0.7 0.3 -1 0.7 -0.7 0.3 0.4 0.3 1 0 1.4 -0.4 0.3 -0.7 0 -0.7 -0.7z"/>
  <path d="M159.5 63 c-0.3 -0.5 -0.1 -1 0.4 -1 0.6 0 1.1 0.5 1.1 1 0 0.6 -0.2 1 -0.4 1 -0.3 0 -0.8 -0.4 -1.1 -1z"/>
  <path d="M156 60 c0 -0.7 0.3 -1 0.7 -0.7 0.3 0.4 0.3 1 0 1.4 -0.4 0.3 -0.7 0 -0.7 -0.7z"/>
  <path d="M168 59 c0 -0.7 0.3 -1 0.7 -0.7 0.3 0.4 0.3 1 0 1.4 -0.4 0.3 -0.7 0 -0.7 -0.7z"/>
  <path d="M162.6 56.3 c-0.6 -1.4 -0.5 -1.5 0.5 -0.6 0.7 0.7 1 1.5 0.7 1.8 -0.3 0.3 -0.9 -0.2 -1.2 -1.2z"/>
  <path d="M168.4 51.8 c-0.4 -0.7 -0.3 -0.8 0.4 -0.4 1.2 0.7 1.6 1.6 0.8 1.6 -0.3 0 -0.8 -0.5 -1.2 -1.2z"/>
 </g>
 <g fill="#b1b1b1">
  <path d="M44.9 107.4 c-2.6 -1.7 -5.3 -3.4 -6 -3.8 -0.8 -0.3 -2.7 -1.5 -4.4 -2.5 -2.5 -1.6 -5 -2 -13.7 -2 l-10.8 -0.1 0 -3.5 0 -3.5 27.8 0 27.7 0 -3.2 -2 c-2.9 -1.7 -3.3 -2.5 -3.3 -6.3 0 -3 0.7 -5.3 2.4 -7.6 1.4 -1.9 2.8 -4.6 3.1 -6.1 0.8 -3.4 4 -7 6.4 -7 2.9 0 5.8 4.1 6.5 9.4 0.3 2.7 1.3 6 2.1 7.2 2.3 3.5 1.8 6.3 -1.6 9.5 l-3.1 2.9 10.3 0 10.3 0 -2.9 -3 c-2.3 -2.4 -2.9 -4.1 -3.3 -8.7 -0.3 -4.9 0 -6.2 1.8 -8.1 1.6 -1.7 3.1 -2.3 5.1 -2 4.7 0.7 4.1 -1.7 -0.7 -3 -4.2 -1.1 -9.2 -4.8 -8 -5.9 0.8 -0.8 9.2 2.5 10.6 4.2 1 1.3 1.5 1.1 3.2 -1 1.9 -2.5 5.8 -3.5 5.8 -1.5 0 0.6 -0.9 1 -1.9 1 -2.2 0 -3.3 2 -3.8 7 -0.4 3.5 -0.4 3.5 1.2 1.3 1.6 -2.3 5 -3 7.1 -1.5 5.1 3.4 3.9 15.6 -2 19.7 -1.8 1.4 -0.7 1.5 10.9 1.5 l13 0 -4 -1.9 c-2.2 -1 -5.1 -3 -6.5 -4.5 l-2.4 -2.7 5.7 2.6 c8.8 4.1 16.9 5.1 24.6 3.1 16 -4.1 25 -16.8 25.2 -35.4 0 -7.1 0.2 -8.2 1.1 -6.2 3.2 7.5 2.6 17.5 -1.4 25.3 -3.3 6.6 -9.6 12.5 -17.2 16.2 l-7.1 3.5 20.3 0 20.2 0 0 3.5 0 3.5 -10.2 0 -10.2 0 -9.3 5.5 -9.3 5.6 -50.7 0.2 -50.8 0.2 -4.6 -3.1z m104.4 -4.8 c4.5 -3.5 2.7 -3.6 -51 -3.6 l-52.8 0.1 4 2.4 4 2.5 47 0 c37.5 -0.1 47.4 -0.3 48.8 -1.4z m-47 -27.3 c-0.7 -0.2 -2.1 -0.2 -3 0 -1 0.3 -0.4 0.5 1.2 0.5 1.7 0 2.4 -0.2 1.8 -0.5z"/>
  <path d="M31.3 76.3 c-1.5 -0.5 -1.7 -2.3 -0.4 -2.3 0.5 0 1.1 0.7 1.5 1.5 0.3 0.8 0.4 1.5 0.3 1.4 -0.1 0 -0.8 -0.3 -1.4 -0.6z"/>
  <path d="M98.4 64 c-0.5 -0.5 -2.2 -1.6 -3.9 -2.5 l-3 -1.7 3 0.7 c3.1 0.6 6.3 3 5.4 4 -0.3 0.2 -1 0.1 -1.5 -0.5z"/>
  <path d="M73 61.1 c0 -1.2 2.9 -3.5 4.7 -3.7 1.1 -0.2 0.8 0.5 -0.8 2.2 -2.3 2.5 -3.9 3.1 -3.9 1.5z"/>
 </g>
 <g fill="#bab43c">
  <path d="M62.3 90 c-2.9 -1.7 -3.3 -2.5 -3.3 -6.3 0 -3 0.7 -5.3 2.4 -7.6 1.4 -1.9 2.8 -4.6 3.1 -6.1 0.8 -3.4 4 -7 6.4 -7 2.9 0 5.8 4.1 6.5 9.4 0.3 2.7 1.3 6 2.1 7.2 2.3 3.5 1.8 6.3 -1.6 9.5 -3.9 3.6 -10.6 4 -15.6 0.9z"/>
 </g>
 <g fill="#65ba41">
  <path d="M92.5 89 c-2.3 -2.4 -2.9 -4.1 -3.3 -8.7 -0.5 -7.1 2 -10.6 7.1 -10.1 4.8 0.5 4.2 -1.6 -0.8 -3 -4.2 -1.1 -9.3 -4.8 -8.2 -5.9 0.9 -0.8 7.3 1.6 10.1 3.8 1.4 1.1 2.6 1.6 2.6 1 0 -1 -4.2 -4.2 -7 -5.5 -0.8 -0.3 -0.1 -0.4 1.5 -0.1 1.7 0.3 3.8 1.5 4.8 2.7 1.6 1.9 1.9 2 3.5 0.4 1 -0.9 2.5 -1.6 3.3 -1.6 0.9 0 0.7 0.5 -0.6 1.2 -3.2 1.8 -4.4 4 -4.5 7.8 0 3.4 0 3.4 1.6 1.2 1.5 -2.2 4.9 -2.9 7 -1.4 3.5 2.3 4.4 9.3 1.8 14.8 -2.3 4.8 -5 6.4 -10.9 6.4 -4.4 0 -5.5 -0.4 -8 -3z m9.8 -13.7 c-0.7 -0.2 -2.1 -0.2 -3 0 -1 0.3 -0.4 0.5 1.2 0.5 1.7 0 2.4 -0.2 1.8 -0.5z"/>
 </g>
 <g fill="#265d0c">
  <path d="M133.3 92 c-5.3 -1.1 -9.2 -3.1 -12.3 -6.5 l-2.5 -2.8 3.4 1.8 c10.1 5.1 19.1 6.4 27.7 4 15.5 -4.4 24.3 -17.1 24.5 -35.3 0 -7.1 0.2 -8.2 1.1 -6.2 2 4.9 2.6 10.5 1.6 16 -2.6 14.1 -12.9 24.5 -28.3 28.5 -6.4 1.6 -8.8 1.7 -15.2 0.5z"/>
  <path d="M99.3 71.2 c0.5 -2.6 0.3 -2.9 -3.9 -4 -4.2 -1.1 -9.2 -4.8 -8.1 -5.9 0.9 -0.8 7.3 1.6 10.1 3.8 1.4 1.1 2.6 1.6 2.6 1 0 -1 -4.2 -4.2 -7 -5.5 -0.8 -0.3 -0.1 -0.4 1.5 -0.1 1.7 0.3 3.8 1.5 4.8 2.7 1.6 1.9 1.9 2 3.5 0.4 1 -0.9 2.5 -1.6 3.3 -1.6 0.9 0 0.7 0.5 -0.6 1.2 -3.1 1.8 -4.4 4 -4.5 7.6 0 1.7 -0.5 3.2 -1.1 3.2 -0.7 0 -0.9 -1.1 -0.6 -2.8z"/>
 </g>
 <g fill="#000000">
  <path d="M94 154.3 c0 -0.9 0.3 -1.3 0.7 -1 0.3 0.4 1.2 0.2 2 -0.4 2 -1.7 1.9 -20.5 -0.2 -21.3 -2.6 -1 -1.6 -2.6 1.5 -2.6 l3 0 0 12.3 c0 8.2 -0.4 12.7 -1.2 13.5 -1.8 1.8 -5.8 1.5 -5.8 -0.5z"/>
  <path d="M17 147.5 c0 -0.8 0.7 -1.5 1.5 -1.5 1.2 0 1.5 -1.8 1.5 -10.5 0 -8.7 -0.3 -10.5 -1.5 -10.5 -0.8 0 -1.5 -0.7 -1.5 -1.6 0 -1.2 0.9 -1.4 3.8 -1.2 l3.7 0.3 4.2 10.5 4.2 10.4 1.9 -4.4 c1.1 -2.5 2.9 -7.3 4.2 -10.7 2.2 -6.2 2.3 -6.3 6.1 -6.3 2.8 0 3.9 0.4 3.9 1.5 0 0.8 -0.7 1.5 -1.5 1.5 -1.2 0 -1.5 1.8 -1.5 10.5 0 8.9 0.2 10.5 1.6 10.5 0.9 0 1.4 0.6 1.2 1.3 -0.5 1.4 -6.1 2.2 -8.6 1.2 -1.5 -0.6 -1.6 -0.7 -0.1 -1.8 1.1 -0.9 1.8 -3.7 2.2 -9.6 0.4 -4.6 0.3 -8.1 -0.1 -7.7 -0.4 0.4 -2.3 4.9 -4.3 9.9 -2 5.1 -4.3 9.2 -5 9.2 -0.7 0 -2.9 -4.2 -5 -9.3 -2 -5.1 -4 -9.6 -4.3 -9.9 -0.3 -0.4 -0.6 3.1 -0.6 7.6 0 6.3 0.3 8.3 1.5 8.7 0.8 0.4 1.5 1.2 1.5 2 0 1 -1.3 1.4 -4.5 1.4 -3.3 0 -4.5 -0.4 -4.5 -1.5z"/>
  <path d="M56.4 147.8 c-4.9 -2.3 -6.1 -12.2 -1.9 -16.3 5.1 -5.2 13.5 -1.7 13.5 5.6 0 2.8 -0.1 2.8 -6.5 3.1 l-6.4 0.3 1.2 2.5 c1.1 2.2 1.9 2.5 6 2.3 4.9 -0.1 6 0.9 2.8 2.7 -2.4 1.2 -5.9 1.2 -8.7 -0.2z m7.4 -13 c-0.5 -4 -7.8 -3.2 -7.8 0.8 0 1 1.3 1.4 4.1 1.4 3.6 0 4 -0.2 3.7 -2.2z"/>
  <path d="M71 147.5 c0 -0.8 0.7 -1.5 1.5 -1.5 1.2 0 1.5 -1.4 1.5 -6.9 0 -5.2 -0.4 -7 -1.5 -7.5 -0.8 -0.3 -1.5 -1 -1.5 -1.6 0 -1.4 5.7 -1.2 6.3 0.3 0.4 1 0.7 1 1.8 0 0.7 -0.7 2.8 -1.3 4.5 -1.3 4.7 0 6.4 2.9 6.4 10.7 0 5.1 0.3 6.3 1.6 6.3 0.9 0 1.4 0.6 1.2 1.3 -0.5 1.4 -6.1 2.2 -8.6 1.2 -1.6 -0.6 -1.5 -0.8 0.1 -2 1.5 -1.1 1.7 -2.5 1.5 -7.6 l-0.3 -6.4 -3.5 0 -3.5 0 -0.3 6.8 c-0.2 4.2 0.1 6.7 0.8 6.7 0.5 0 1 0.7 1 1.5 0 1.1 -1.2 1.5 -4.5 1.5 -3.3 0 -4.5 -0.4 -4.5 -1.5z"/>
  <path d="M107.7 147.2 c-4 -4.4 -0.7 -9.2 6.2 -9.2 4 0 4.2 -0.1 3.9 -2.7 -0.3 -2.4 -0.8 -2.8 -4 -3.1 -2.9 -0.2 -3.8 0 -3.8 1.2 0 0.9 -0.7 1.6 -1.5 1.6 -2.2 0 -1.8 -3.7 0.4 -5 2.9 -1.5 8.7 -1.2 10.5 0.6 1.9 1.8 2.3 3.7 2.9 12.2 0.5 5.5 0.3 6.2 -1.3 6.2 -1.1 0 -2.3 -0.7 -2.8 -1.6 -0.8 -1.4 -1 -1.4 -2.1 0 -1.8 2.2 -6.4 2 -8.4 -0.2z m8.4 -2.2 c2.8 -1.6 2.5 -5 -0.5 -5 -3.7 0 -5.6 1 -5.6 2.9 0 3.2 2.4 4 6.1 2.1z"/>
  <path d="M129 147 c-3.6 -3.6 -3.8 -10.9 -0.4 -15.8 1.7 -2.5 7.1 -3.1 9.2 -1 0.9 0.9 1.2 0.3 1.2 -3 0 -3.1 -0.4 -4.2 -1.5 -4.2 -0.8 0 -1.5 -0.7 -1.5 -1.6 0 -1.1 0.8 -1.4 3.3 -1.2 l3.2 0.3 0.3 12.8 c0.1 7.3 0.7 12.7 1.2 12.7 0.6 0 1 0.7 1 1.5 0 1.7 -4.5 2.1 -5.5 0.5 -0.4 -0.7 -1.2 -0.7 -2.5 0 -2.9 1.5 -5.8 1.2 -8 -1z m8.8 -2.2 c0.7 -0.7 1.2 -3.3 1.2 -5.8 0 -5 -1.3 -7 -4.5 -7 -3.2 0 -4.5 2 -4.5 7 0 5 1.3 7 4.5 7 1.2 0 2.6 -0.5 3.3 -1.2z"/>
  <path d="M151.3 146.6 c-2.4 -2.1 -2.8 -3.2 -2.8 -7.4 0 -6.5 3.1 -10.2 8.5 -10.2 5.4 0 8.5 3.7 8.5 10.2 0 4.2 -0.4 5.3 -2.8 7.4 -1.6 1.3 -4.1 2.4 -5.7 2.4 -1.6 0 -4.1 -1.1 -5.7 -2.4z m9.1 -2.2 c1.8 -1.8 2.1 -7.6 0.6 -10.5 -0.7 -1.2 -2.1 -1.9 -4 -1.9 -3.4 0 -5 2.3 -5 7 0 1.7 0.5 4 1 5.1 1.3 2.3 5.3 2.5 7.4 0.3z"/>
  <path d="M169 147.5 c0 -0.8 0.7 -1.5 1.5 -1.5 1.2 0 1.5 -1.4 1.5 -6.9 0 -5.2 -0.4 -7 -1.5 -7.5 -2.6 -1 -1.6 -2.6 1.5 -2.6 1.7 0 3 0.4 3 0.9 0 0.5 1.3 0.4 3 -0.2 1.6 -0.6 3.2 -0.8 3.6 -0.5 1 1.1 -0.6 2.8 -2.6 2.8 -2.6 0 -4 3 -4 8.5 0 3.1 0.5 4.7 1.5 5.1 0.8 0.4 1.5 1.2 1.5 2 0 1 -1.3 1.4 -4.5 1.4 -3.3 0 -4.5 -0.4 -4.5 -1.5z"/>
  <path d="M98 122 c0 -1.1 0.7 -2 1.5 -2 0.8 0 1.5 0.9 1.5 2 0 1.1 -0.7 2 -1.5 2 -0.8 0 -1.5 -0.9 -1.5 -2z"/>
  <path d="M99.4 70.8 c0.8 -4.2 3.7 -8.2 6.2 -8.6 1.8 -0.3 1.8 -0.2 -0.1 0.9 -3.1 2 -4.4 4.1 -4.5 7.7 0 1.7 -0.5 3.2 -1.1 3.2 -0.8 0 -0.9 -1.1 -0.5 -3.2z"/>
  <path d="M73 61.5 c0 -0.3 0.2 -0.5 0.5 -0.5 0.3 0 0.5 0.2 0.5 0.5 0 0.3 -0.2 0.5 -0.5 0.5 -0.3 0 -0.5 -0.2 -0.5 -0.5z"/>
 </g>
</svg>